<svg width="255" height="218" viewBox="0 0 255 218" fill="none" xmlns="http://www.w3.org/2000/svg">
<g clip-path="url(#clip0)">
<path d="M51.3657 2.92961C23.9221 10.8891 -0.922751 36.8442 0.964001 62.2237C2.78318 87.5981 31.4171 112.386 49.5959 142.531C67.715 172.736 75.4465 208.299 96.5153 222.429C117.524 236.557 151.813 229.191 179.493 214.413C207.127 199.635 228.125 177.504 241.171 152.189C254.166 126.812 259.231 98.2617 251.029 75.4696C242.879 52.6827 221.514 35.7268 200.63 26.6006C179.678 17.5263 159.199 16.414 133.998 10.762C108.732 5.11004 78.7444 -5.01689 51.3657 2.92961Z" fill="#F8F8F8"/>
<path d="M0 168.554C0 154.294 5.97731 152.22 5.97731 143.405C5.97731 107.626 17.9319 101.663 25.7284 101.663C40.5418 101.663 38.8785 117.191 42.361 122.404C50.1575 134.071 53.5359 142.627 53.5359 150.664C53.5359 183.332 40.022 202.777 28.5872 202.777C16.1128 202.777 0 185.165 0 168.554Z" fill="#74D5DE"/>
<path d="M28.0674 145.22V224.296" stroke="#FED892" stroke-width="6" stroke-miterlimit="10" stroke-linecap="round"/>
<path d="M28.0674 165.702L40.2819 153.517" stroke="#FED892" stroke-width="6" stroke-miterlimit="10" stroke-linecap="round"/>
<path d="M28.0676 185.665L17.2825 174.906" stroke="#FED892" stroke-width="6" stroke-miterlimit="10" stroke-linecap="round"/>
<path d="M196.732 30.3647H48.0786V218.592H196.732V30.3647Z" fill="#DE8E68"/>
<path d="M201.02 209H43.7903V218.592H201.02V209Z" fill="#D37C59"/>
<path d="M104.473 157.924H64.7109V218.592H104.473V157.924Z" fill="#ED6E58"/>
<path d="M187.376 157.924H114.089V192.406H187.376V157.924Z" fill="#FED892"/>
<path d="M206.088 108.664H37.4233V112.553H206.088V108.664Z" fill="#FED892"/>
<path d="M206.088 75.9956H37.4233V79.8846H206.088V75.9956Z" fill="#FED892"/>
<path d="M206.088 23.8833H37.4233V32.9576H206.088V23.8833Z" fill="#FED892"/>
<path d="M84.4618 40.9951H56.6543V75.996H84.4618V40.9951Z" fill="#FED892"/>
<path d="M83.1628 42.1104H57.9541V75.9938H83.1628V42.1104Z" fill="white"/>
<path d="M135.399 40.9951H107.592V75.996H135.399V40.9951Z" fill="#FED892"/>
<path d="M134.1 42.1104H108.891V75.9938H134.1V42.1104Z" fill="white"/>
<path d="M186.336 40.9951H158.529V75.996H186.336V40.9951Z" fill="#FED892"/>
<path d="M185.037 42.1104H159.828V75.9938H185.037V42.1104Z" fill="white"/>
<path d="M210.765 140.035H34.0449V146.776H210.765V140.035Z" fill="#ED6E58"/>
<path d="M210.765 140.034L196.732 112.552H48.0786L34.0449 140.034H210.765Z" fill="#FD8369"/>
<path d="M52.7565 112.552H48.0786V140.034H52.7565V112.552Z" fill="#ED6E58"/>
<path d="M63.8327 112.552H59.1548V140.034H63.8327V112.552Z" fill="#ED6E58"/>
<path d="M74.906 112.552H70.228V140.034H74.906V112.552Z" fill="#ED6E58"/>
<path d="M85.9821 112.552H81.3042V140.034H85.9821V112.552Z" fill="#ED6E58"/>
<path d="M97.0561 112.552H92.3782V140.034H97.0561V112.552Z" fill="#ED6E58"/>
<path d="M108.132 112.552H103.454V140.034H108.132V112.552Z" fill="#ED6E58"/>
<path d="M119.206 112.552H114.528V140.034H119.206V112.552Z" fill="#ED6E58"/>
<path d="M130.282 112.552H125.604V140.034H130.282V112.552Z" fill="#ED6E58"/>
<path d="M141.356 112.552H136.678V140.034H141.356V112.552Z" fill="#ED6E58"/>
<path d="M152.432 112.552H147.754V140.034H152.432V112.552Z" fill="#ED6E58"/>
<path d="M163.505 112.552H158.827V140.034H163.505V112.552Z" fill="#ED6E58"/>
<path d="M174.582 112.552H169.904V140.034H174.582V112.552Z" fill="#ED6E58"/>
<path d="M185.655 112.552H180.978V140.034H185.655V112.552Z" fill="#ED6E58"/>
<path d="M196.732 112.552H192.054V140.034H196.732V112.552Z" fill="#ED6E58"/>
<path d="M185.037 159.998H116.428V190.332H185.037V159.998Z" fill="white"/>
<path d="M83.1628 47.5781L57.9541 72.7269V75.9963H58.9936L83.1628 51.8845V47.5781Z" fill="#C7FCFF"/>
<path d="M76.6657 42.0322L57.9541 60.6994V70.1885L83.1628 45.0397V42.0322H76.6657Z" fill="#C7FCFF"/>
<path d="M134.1 47.5781L108.891 72.7269V75.9963H109.931L134.1 51.8845V47.5781Z" fill="#C7FCFF"/>
<path d="M127.603 42.0322L108.891 60.6994V70.1885L134.1 45.0397V42.0322H127.603Z" fill="#C7FCFF"/>
<path d="M185.037 47.5781L159.828 72.7269V75.9963H160.868L185.037 51.8845V47.5781Z" fill="#C7FCFF"/>
<path d="M178.54 42.0322L159.828 60.6994V70.1885L185.037 45.0397V42.0322H178.54Z" fill="#C7FCFF"/>
<path d="M102.394 159.998H66.79V218.592H102.394V159.998Z" fill="#74D5DE"/>
<path d="M103.433 186.703H66.0103V188.258H103.433V186.703Z" fill="#ED6E58"/>
<path d="M218.302 93.3667H196.731V96.4779H218.302V93.3667Z" fill="#FD8369"/>
<path d="M223.63 105.941C229.73 105.941 234.675 101.008 234.675 94.9221C234.675 88.8366 229.73 83.9033 223.63 83.9033C217.53 83.9033 212.584 88.8366 212.584 94.9221C212.584 101.008 217.53 105.941 223.63 105.941Z" fill="#74D5DE"/>
<path d="M223.63 102.638C227.901 102.638 231.364 99.1836 231.364 94.9223C231.364 90.661 227.901 87.2065 223.63 87.2065C219.358 87.2065 215.896 90.661 215.896 94.9223C215.896 99.1836 219.358 102.638 223.63 102.638Z" fill="#FED892"/>
<path d="M148.167 159.998L117.761 190.332H137.998L168.404 159.998H148.167Z" fill="#C7FCFF"/>
<path d="M146.314 190.332L176.72 159.998H172.856L142.45 190.332H146.314Z" fill="#C7FCFF"/>
<path d="M185.037 159.998H180.912L150.506 190.332H159.568L185.037 164.924V159.998Z" fill="#C7FCFF"/>
</g>
<defs>
<clipPath id="clip0">
<rect width="255" height="218" fill="white"/>
</clipPath>
</defs>
</svg>
