<svg width="628" height="628" viewBox="0 0 628 628" fill="none" xmlns="http://www.w3.org/2000/svg">
<path d="M107.519 252.796H92.1069V378.197" stroke="#DFDFDF" stroke-width="4" stroke-miterlimit="10"/>
<path d="M274.069 237.326H136.736V501.809H274.069V237.326Z" fill="#F3F3F3"/>
<path d="M137.114 237.326H105.169V501.809H137.114V237.326Z" fill="#DFDFDF"/>
<path d="M137.605 509.727C106.608 509.727 53.7202 462.423 53.7202 423.136C53.7202 420.148 55.1384 414.506 58.268 414.506C75.1873 414.48 137.605 464.914 137.605 509.727Z" fill="#56D8C1"/>
<path d="M343.082 165.745V338.366H352.988" stroke="#DFDFDF" stroke-width="4" stroke-miterlimit="10"/>
<path d="M506.519 527.802L472.513 470.581" stroke="#ED7562" stroke-width="4" stroke-linecap="round" stroke-linejoin="round"/>
<path d="M521.266 527.802L487.26 470.581" stroke="#ED7562" stroke-width="4" stroke-linecap="round" stroke-linejoin="round"/>
<path d="M412.711 527.802L446.712 470.581" stroke="#ED7562" stroke-width="4" stroke-linecap="round" stroke-linejoin="round"/>
<path d="M490.886 350.005H541.163L507.397 472.376H421.738V468.017H485.266L490.886 350.005Z" fill="#ED7562"/>
<path d="M416.149 523.385L406.618 524.868L407.943 533.385L417.473 531.902L416.149 523.385Z" fill="#DE8E68"/>
<path d="M360.036 517.998L351.947 512.745L347.253 519.974L355.342 525.227L360.036 517.998Z" fill="#DE8E68"/>
<path d="M391.757 430.316C384.718 430.316 349.586 512.108 349.586 515.096C349.586 518.084 357.211 521.475 358.337 521.475C360.09 519.848 393.719 471.235 397.22 467.844C400.721 464.453 391.757 430.316 391.757 430.316Z" fill="#56D8C8"/>
<path d="M447.66 370.253C445.347 370.981 434.053 380.657 432.08 392.28C430.07 392.04 418.013 391.537 412.989 391.333C411.346 388.774 407.886 387 403.872 387C398.278 387 393.741 390.438 393.741 394.677C393.741 394.771 393.741 394.86 393.741 394.955H413.968C413.968 394.86 413.968 394.771 413.968 394.677C413.961 393.606 413.672 392.555 413.13 391.631L430.704 394.431L451.579 396.603L453.73 378.37L447.66 370.253Z" fill="#D37C59"/>
<path d="M464.992 357.301C464.992 355.83 461.329 354.161 458.639 354.161C451.459 354.161 439.312 367.244 439.312 368.887C439.312 370.53 448.057 377.847 454.777 378.286C461.497 378.726 464.992 357.301 464.992 357.301Z" fill="#FCC486"/>
<path d="M482.827 346.813C523.412 346.813 514.138 438.496 508.994 442.369C503.85 446.241 458.754 446.597 455.818 442.724C452.882 438.852 434.665 346.813 482.827 346.813Z" fill="#FED385"/>
<path d="M489.96 329.276H473.737V351.01C473.737 354.459 489.96 354.485 489.96 351.01V329.276Z" fill="#D37C59"/>
<path d="M494.579 321.043C496.652 308.042 491.243 296.372 482.498 294.978C473.752 293.583 464.982 302.992 462.909 315.993C460.836 328.994 466.245 340.664 474.99 342.059C483.736 343.453 492.506 334.044 494.579 321.043Z" fill="#DE8E68"/>
<path d="M516.792 283.385C524.642 283.385 532.492 287.572 542.435 287.572C550.285 287.572 557.612 284.432 567.032 284.432C583.778 284.432 589.012 295.422 589.012 302.225C589.012 319.495 574.882 326.298 564.415 326.298C547.668 326.298 545.575 314.785 525.688 314.785C506.325 314.785 508.942 299.085 504.755 299.085C502.662 299.085 501.353 299.347 500.568 300.132C499.783 300.917 495.858 298.038 495.858 296.992C495.858 295.945 501.092 283.385 516.792 283.385Z" fill="black"/>
<path d="M481.728 289.142C463.218 289.142 459.345 303.225 459.345 307.291C459.345 311.357 461.915 314.372 463.228 314.471C464.045 309.609 467.938 302.9 468.122 302.748C469.168 303.795 473.046 307.155 477.018 307.458C480.327 307.628 483.54 308.629 486.36 310.368C486.593 311.721 487.103 313.01 487.856 314.157C488.927 315.882 490.545 317.2 492.451 317.899C492.916 319.068 493.183 320.306 493.242 321.562C493.242 327.151 492.718 329.412 492.195 330.982C500.725 330.982 504.755 322.195 504.755 311.096C504.755 292.821 488.584 289.142 481.728 289.142Z" fill="black"/>
<path d="M493.215 326.194C495.713 326.194 497.737 324.169 497.737 321.672C497.737 319.175 495.713 317.151 493.215 317.151C490.718 317.151 488.694 319.175 488.694 321.672C488.694 324.169 490.718 326.194 493.215 326.194Z" fill="#DE8E68"/>
<path d="M478.065 380.657C476.239 381.097 468.917 385.634 464.527 393.463C460.209 392.657 442.646 388.266 427.056 388.266C425.591 388.266 421.786 387.063 420.253 387.063C411.11 387.063 409.2 392.003 409.2 393.463C409.2 394.923 409.514 394.965 409.796 394.965C441.196 394.965 449.093 408.211 466.756 408.211C472.471 408.211 484.251 404.071 491.353 393.468C488.862 385.022 478.065 380.657 478.065 380.657Z" fill="#DE8E68"/>
<path d="M508.931 362.811C518.738 372.331 493.937 398.681 489.96 398.293C485.983 397.906 471.643 382.808 471.507 378.218C471.371 373.629 499.453 353.606 508.931 362.811Z" fill="#FED892"/>
<path d="M529.09 396.137H307.6V403.286H529.09V396.137Z" fill="#FD8369"/>
<path d="M508.905 446.927C508.905 444.676 509.298 442.07 507.895 441.489C474.601 427.762 425.858 425.983 418.348 425.983C410.838 425.983 388.879 426.747 388.879 433.032C388.879 455.734 401.528 525.625 404.097 528.237C405.317 529.467 415.951 528.645 417.275 527.316C417.186 521.559 420.53 463.736 417.479 456.734C445.462 466.991 477.238 471.848 485.612 471.848C509.879 471.822 508.905 449.596 508.905 446.927Z" fill="#74DED8"/>
<path d="M356.139 524.15L347.692 518.519L324.959 513.756L322.797 517.326L349.587 533.889L356.139 524.15Z" fill="black"/>
<path d="M418.264 529.655L408.242 531.231L388.287 543.121L389.114 547.218L420.043 541.263L418.264 529.655Z" fill="black"/>
<path d="M517.189 509.9V401.287" stroke="#FD8369" stroke-width="4" stroke-linecap="round" stroke-linejoin="round"/>
<path d="M333.159 509.9V401.287" stroke="#FD8369" stroke-width="4" stroke-linecap="round" stroke-linejoin="round"/>
<path d="M501.636 531.665V401.287" stroke="#FD8369" stroke-width="4" stroke-linecap="round" stroke-linejoin="round"/>
<path d="M316.727 531.665V401.287" stroke="#FD8369" stroke-width="4" stroke-linecap="round" stroke-linejoin="round"/>
<path d="M427.841 527.802L461.842 470.581" stroke="#ED7562" stroke-width="4" stroke-linecap="round" stroke-linejoin="round"/>
<path d="M425.654 394.824H388.879V396.137H425.654V394.824Z" fill="#74D5DE"/>
<path d="M428.375 309.211H348.085V367.516H428.375V309.211Z" fill="#74DED8"/>
<path d="M376.952 356.552L365.878 396.137H385.288L396.038 356.552H376.952Z" fill="#56D0D8"/>
<path d="M392.6 168.561C396.454 164.79 398.889 159.804 399.492 154.446C400.096 149.088 398.831 143.686 395.911 139.152C392.992 134.619 388.597 131.232 383.469 129.565C378.341 127.898 372.795 128.052 367.767 130.001C364.553 125.075 360.059 121.115 354.768 118.546C349.477 115.976 343.586 114.893 337.727 115.413C331.868 115.933 326.26 118.036 321.504 121.497C316.747 124.958 313.021 129.647 310.724 135.062C306.197 133.231 301.211 132.862 296.464 134.006C291.717 135.15 287.446 137.749 284.25 141.441C281.054 145.133 279.092 149.731 278.64 154.593C278.187 159.455 279.266 164.337 281.726 168.555L392.6 168.561Z" fill="#DFDFDF"/>
<path d="M334.907 164.128V201.661H219.737V237.326" stroke="#DFDFDF" stroke-width="4" stroke-miterlimit="10"/>
<path d="M155.158 531.665C158.219 531.665 164.185 521.292 164.185 501.176C164.185 486.465 153.876 476.95 150.814 462.376C146.104 440.024 122.779 374.367 86.3605 374.367C82.1738 374.367 76.5532 383.164 76.5532 401.287C76.5532 423.267 97.8424 446.027 97.8424 450.747C97.8634 504.645 145.398 531.665 155.158 531.665Z" fill="#74DED8"/>
<path d="M155.393 531.665C155.393 528.718 151.134 508.952 148.92 504.012C146.706 499.072 138.014 474.365 136.653 467.546C135.292 460.727 110.073 394.112 86.3867 377.24" stroke="#8BE4E4" stroke-width="3" stroke-linecap="round" stroke-linejoin="round"/>
<path d="M144.523 492.378L104.792 484.287" stroke="#8BE4E4" stroke-width="3" stroke-linecap="round" stroke-linejoin="round"/>
<path d="M146.523 497.899L110.135 494.869" stroke="#8BE4E4" stroke-width="3" stroke-linecap="round" stroke-linejoin="round"/>
<path d="M135.072 462.396L98.1406 451.218" stroke="#8BE4E4" stroke-width="3" stroke-linecap="round" stroke-linejoin="round"/>
<path d="M138.589 474.637L149.861 466.442" stroke="#8BE4E4" stroke-width="3" stroke-linecap="round" stroke-linejoin="round"/>
<path d="M117.248 420.791L128.384 408.163" stroke="#8BE4E4" stroke-width="3" stroke-linecap="round" stroke-linejoin="round"/>
<path d="M113.768 414.067L123.245 401.208" stroke="#8BE4E4" stroke-width="3" stroke-linecap="round" stroke-linejoin="round"/>
<path d="M262.687 254.057H148.114V276.142H262.687V254.057Z" fill="#DFDFDF"/>
<path d="M254.46 266.199C256.599 266.199 258.333 264.465 258.333 262.326C258.333 260.187 256.599 258.453 254.46 258.453C252.321 258.453 250.587 260.187 250.587 262.326C250.587 264.465 252.321 266.199 254.46 266.199Z" fill="#F3F3F3"/>
<path d="M187.678 262.326H247.327" stroke="#F3F3F3" stroke-width="4" stroke-linecap="round" stroke-linejoin="round"/>
<path d="M262.687 291.392H148.114V313.477H262.687V291.392Z" fill="#DFDFDF"/>
<path d="M254.46 303.533C256.599 303.533 258.333 301.799 258.333 299.661C258.333 297.522 256.599 295.788 254.46 295.788C252.321 295.788 250.587 297.522 250.587 299.661C250.587 301.799 252.321 303.533 254.46 303.533Z" fill="#F3F3F3"/>
<path d="M187.678 299.661H247.327" stroke="#F3F3F3" stroke-width="4" stroke-linecap="round" stroke-linejoin="round"/>
<path d="M262.687 328.721H148.114V350.806H262.687V328.721Z" fill="#DFDFDF"/>
<path d="M254.46 340.863C256.599 340.863 258.333 339.129 258.333 336.99C258.333 334.851 256.599 333.117 254.46 333.117C252.321 333.117 250.587 334.851 250.587 336.99C250.587 339.129 252.321 340.863 254.46 340.863Z" fill="#F3F3F3"/>
<path d="M187.678 336.99H247.327" stroke="#F3F3F3" stroke-width="4" stroke-linecap="round" stroke-linejoin="round"/>
<path d="M262.687 366.056H148.114V388.141H262.687V366.056Z" fill="#DFDFDF"/>
<path d="M254.46 378.197C256.599 378.197 258.333 376.463 258.333 374.325C258.333 372.186 256.599 370.452 254.46 370.452C252.321 370.452 250.587 372.186 250.587 374.325C250.587 376.463 252.321 378.197 254.46 378.197Z" fill="#F3F3F3"/>
<path d="M187.678 374.325H247.327" stroke="#F3F3F3" stroke-width="4" stroke-linecap="round" stroke-linejoin="round"/>
<path d="M262.687 403.385H148.114V425.47H262.687V403.385Z" fill="#DFDFDF"/>
<path d="M254.46 415.532C256.599 415.532 258.333 413.798 258.333 411.659C258.333 409.52 256.599 407.786 254.46 407.786C252.321 407.786 250.587 409.52 250.587 411.659C250.587 413.798 252.321 415.532 254.46 415.532Z" fill="#F3F3F3"/>
<path d="M187.678 411.659H247.327" stroke="#F3F3F3" stroke-width="4" stroke-linecap="round" stroke-linejoin="round"/>
<path d="M112.548 269.946H129.734" stroke="#F3F3F3" stroke-width="2" stroke-linecap="round" stroke-linejoin="round"/>
<path d="M112.548 274.394H129.734" stroke="#F3F3F3" stroke-width="2" stroke-linecap="round" stroke-linejoin="round"/>
<path d="M112.548 300.21H129.734" stroke="#F3F3F3" stroke-width="2" stroke-linecap="round" stroke-linejoin="round"/>
<path d="M112.548 304.658H129.734" stroke="#F3F3F3" stroke-width="2" stroke-linecap="round" stroke-linejoin="round"/>
<path d="M112.548 336.99H129.734" stroke="#F3F3F3" stroke-width="2" stroke-linecap="round" stroke-linejoin="round"/>
<path d="M112.548 341.444H129.734" stroke="#F3F3F3" stroke-width="2" stroke-linecap="round" stroke-linejoin="round"/>
<path d="M112.548 372.577H129.734" stroke="#F3F3F3" stroke-width="2" stroke-linecap="round" stroke-linejoin="round"/>
<path d="M112.548 377.03H129.734" stroke="#F3F3F3" stroke-width="2" stroke-linecap="round" stroke-linejoin="round"/>
</svg>
