<svg width="211" height="195" viewBox="0 0 211 195" fill="none" xmlns="http://www.w3.org/2000/svg">
<g clip-path="url(#clip0)">
<path d="M148.831 4.73924C173.481 8.24439 204.409 21.5592 210.025 41.1724C215.643 60.8367 195.963 86.7514 177.227 107.485C158.498 128.267 140.732 143.87 118.965 154.383C97.2019 164.85 71.4863 170.301 54.1779 160.429C36.9175 150.625 28.1242 125.524 17.8828 103.418C7.60851 81.2639 -4.13482 62.0561 1.42718 48.5912C7.00115 35.1773 29.8805 27.5032 47.09 22.6765C64.2996 17.8498 75.7887 15.8164 90.7722 11.7015C105.705 7.53255 124.129 1.23408 148.831 4.73924Z" fill="#F2F2F2"/>
<path d="M70.385 10.6653C66.4327 10.6653 65.197 16.8647 65.197 19.3426C65.197 23.5476 69.643 40.9142 73.8407 40.9142C78.0384 40.9142 82.4874 23.7939 82.4874 21.8236C82.4874 19.8532 77.2994 10.6653 70.385 10.6653Z" fill="#DE8E68"/>
<path d="M148.008 11.8401L88.5955 0.138596C84.485 -0.670979 80.4991 2.01787 79.6926 6.14431L57.0214 122.15C56.2149 126.276 58.8934 130.278 63.0038 131.087L122.416 142.789C126.526 143.598 130.512 140.91 131.319 136.783L153.99 20.7775C154.796 16.6511 152.118 12.6497 148.008 11.8401Z" fill="#74D5DE"/>
<path d="M134.394 9.18749L133.643 13.029C133.458 13.9689 132.908 14.7965 132.116 15.3307C131.324 15.8649 130.353 16.0622 129.416 15.8794L103.799 10.8334C102.863 10.6461 102.039 10.0946 101.507 9.29939C100.975 8.50418 100.778 7.5299 100.96 6.58942L101.726 2.74786" fill="#FED385"/>
<path d="M52.3855 116.105L133.359 132.057" stroke="#FED385" stroke-width="3" stroke-miterlimit="10"/>
<path d="M92.9504 133.502C94.6077 133.502 95.9513 132.153 95.9513 130.489C95.9513 128.825 94.6077 127.477 92.9504 127.477C91.293 127.477 89.9495 128.825 89.9495 130.489C89.9495 132.153 91.293 133.502 92.9504 133.502Z" fill="#FED385"/>
<path d="M65.694 44.1522C60.506 44.1522 57.0474 48.1169 57.0474 52.3339C57.0474 66.2164 64.952 77.6209 68.4167 77.6209C75.8247 77.6209 78.5414 73.6532 78.5414 70.9259C78.5354 68.9286 77.5481 44.1522 65.694 44.1522Z" fill="#DE8E68"/>
<path d="M62.9771 80.5823C64.4581 82.0691 75.8185 94.2185 75.8185 102.646C75.8185 108.353 74.5828 112.811 64.2098 112.811C59.2701 112.811 45.4414 93.2243 45.4414 85.2919C45.4414 80.8286 48.1581 70.4153 55.8144 70.4153C58.0374 70.4153 62.9771 74.383 63.7161 75.3742C64.4772 76.1654 65.2845 76.9106 66.1336 77.6058C65.8224 79.2187 64.1051 87.7038 64.1051 87.7038" fill="#DE8E68"/>
<path d="M66.6155 84.6641C66.6155 84.6641 63.1 80.2098 60.877 78.2274" stroke="#FED385" stroke-width="3" stroke-miterlimit="10" stroke-linecap="round"/>
<path d="M61.1311 130.459C60.3921 132.445 59.8894 151.614 62.1124 162.273C60.6165 169.959 54.7014 195.012 54.7014 195.012H108.308L113.741 173.194C113.741 173.194 146.82 144.171 150.03 138.969C153.241 133.766 160.774 103.391 160.667 100.541C160.58 98.5587 124.608 68.0605 123.621 66.8201C122.633 65.5796 105.262 83.0393 134.158 103.133C133.91 105.611 133.925 116.556 133.925 116.556C133.925 116.556 113.825 123.491 111.784 124.987C109.744 126.483 105.84 137.022 105.133 139.386C102.402 138.851 61.1311 130.459 61.1311 130.459Z" fill="#DE8E68"/>
<path d="M100.921 151.809C101.594 149.226 104.858 139.948 105.669 137.734" stroke="#FED385" stroke-width="3" stroke-miterlimit="10" stroke-linecap="round"/>
</g>
<defs>
<clipPath id="clip0">
<rect width="211" height="195" fill="white"/>
</clipPath>
</defs>
</svg>
