<svg width="261" height="217" viewBox="0 0 261 217" fill="none" xmlns="http://www.w3.org/2000/svg">
<g clip-path="url(#clip0)" filter="url(#filter0_d)">
<path d="M183.786 206.092H243.197V91.672H183.786V206.092Z" fill="#F3F3F3"/>
<path d="M243.035 206.092H256.854V91.672H243.035V206.092Z" fill="#DFDFDF"/>
<path d="M188.707 108.464H238.273V98.9083H188.707V108.464Z" fill="#DFDFDF"/>
<path d="M192.27 104.165C193.196 104.165 193.947 103.415 193.947 102.488C193.947 101.562 193.196 100.812 192.27 100.812C191.344 100.812 190.593 101.562 190.593 102.488C190.593 103.415 191.344 104.165 192.27 104.165Z" fill="#F3F3F3"/>
<path d="M221.158 102.488H195.354" stroke="#F3F3F3" stroke-width="4" stroke-linecap="round" stroke-linejoin="round"/>
<path d="M188.707 124.614H238.273V115.059H188.707V124.614Z" fill="#DFDFDF"/>
<path d="M192.27 120.316C193.196 120.316 193.947 119.565 193.947 118.639C193.947 117.713 193.196 116.962 192.27 116.962C191.344 116.962 190.593 117.713 190.593 118.639C190.593 119.565 191.344 120.316 192.27 120.316Z" fill="#F3F3F3"/>
<path d="M221.158 118.64H195.354" stroke="#F3F3F3" stroke-width="4" stroke-linecap="round" stroke-linejoin="round"/>
<path d="M188.707 140.768H238.273V131.212H188.707V140.768Z" fill="#DFDFDF"/>
<path d="M192.27 136.465C193.196 136.465 193.947 135.714 193.947 134.788C193.947 133.862 193.196 133.111 192.27 133.111C191.344 133.111 190.593 133.862 190.593 134.788C190.593 135.714 191.344 136.465 192.27 136.465Z" fill="#F3F3F3"/>
<path d="M221.158 134.788H195.354" stroke="#F3F3F3" stroke-width="4" stroke-linecap="round" stroke-linejoin="round"/>
<path d="M188.707 156.917H238.273V147.361H188.707V156.917Z" fill="#DFDFDF"/>
<path d="M192.27 152.616C193.196 152.616 193.947 151.865 193.947 150.939C193.947 150.013 193.196 149.262 192.27 149.262C191.344 149.262 190.593 150.013 190.593 150.939C190.593 151.865 191.344 152.616 192.27 152.616Z" fill="#F3F3F3"/>
<path d="M221.158 150.939H195.354" stroke="#F3F3F3" stroke-width="4" stroke-linecap="round" stroke-linejoin="round"/>
<path d="M188.707 173.067H238.273V163.512H188.707V173.067Z" fill="#DFDFDF"/>
<path d="M192.27 168.767C193.196 168.767 193.947 168.016 193.947 167.09C193.947 166.164 193.196 165.413 192.27 165.413C191.344 165.413 190.593 166.164 190.593 167.09C190.593 168.016 191.344 168.767 192.27 168.767Z" fill="#F3F3F3"/>
<path d="M221.158 167.09H195.354" stroke="#F3F3F3" stroke-width="4" stroke-linecap="round" stroke-linejoin="round"/>
<path d="M253.66 105.783H246.225" stroke="#F3F3F3" stroke-width="2" stroke-linecap="round" stroke-linejoin="round"/>
<path d="M253.66 107.708H246.225" stroke="#F3F3F3" stroke-width="2" stroke-linecap="round" stroke-linejoin="round"/>
<path d="M253.66 118.876H246.225" stroke="#F3F3F3" stroke-width="2" stroke-linecap="round" stroke-linejoin="round"/>
<path d="M253.66 120.8H246.225" stroke="#F3F3F3" stroke-width="2" stroke-linecap="round" stroke-linejoin="round"/>
<path d="M253.66 134.788H246.225" stroke="#F3F3F3" stroke-width="2" stroke-linecap="round" stroke-linejoin="round"/>
<path d="M253.66 136.714H246.225" stroke="#F3F3F3" stroke-width="2" stroke-linecap="round" stroke-linejoin="round"/>
<path d="M253.66 150.184H246.225" stroke="#F3F3F3" stroke-width="2" stroke-linecap="round" stroke-linejoin="round"/>
<path d="M253.66 152.107H246.225" stroke="#F3F3F3" stroke-width="2" stroke-linecap="round" stroke-linejoin="round"/>
<path d="M109.706 52.5356H4.271V112.592H109.706V52.5356Z" fill="#F3F3F3"/>
<path d="M66.2019 62.0015H18.2248C14.9703 62.0015 12.332 64.6398 12.332 67.8943V99.4986C12.332 102.753 14.9703 105.391 18.2248 105.391H66.2019C69.4564 105.391 72.0947 102.753 72.0947 99.4986V67.8943C72.0947 64.6398 69.4564 62.0015 66.2019 62.0015Z" fill="#D0D0D0"/>
<path d="M166.386 117.854C167.383 118.679 174.537 124.109 177.467 127.545C180.185 128.292 191.966 132.777 202.271 134.352C202.239 135.804 201.494 140.643 201.494 140.643C201.494 140.643 176.689 137.561 173.699 136.741C170.709 135.922 159.058 128.85 156.507 126.177C159.908 122.579 166.386 117.854 166.386 117.854Z" fill="#DE8E68"/>
<path d="M204.933 141.822C208.002 141.822 210.489 139.977 210.489 137.701C210.489 135.425 208.002 133.58 204.933 133.58C201.864 133.58 199.376 135.425 199.376 137.701C199.376 139.977 201.864 141.822 204.933 141.822Z" fill="#DE8E68"/>
<path d="M126.592 155.07V209.156H144.976L135.784 155.655L126.592 155.07Z" fill="#56D8D8"/>
<path d="M157.429 157.211V209.157H142.653L130.713 154.517L157.429 157.211Z" fill="#74DED1"/>
<path d="M122.815 119.534C121.975 120.444 119.598 123.379 118.97 124.498C117.363 123.1 90.4479 98.3525 89.8175 98.3525C89.5339 98.3566 89.262 98.4664 89.055 98.6605C88.8481 98.8545 88.721 99.1187 88.6987 99.4015C88.6987 102.681 91.0907 102.843 94.0608 105.992C100.29 117.172 115.213 137.429 119.107 137.429C121.35 137.429 130.711 128.29 130.711 127.091C130.711 125.893 122.815 119.534 122.815 119.534Z" fill="#DE8E68"/>
<path d="M135.879 106.074C129.649 102.312 119.74 116.111 119.932 118.418C120.124 120.725 129.276 127.44 133.098 126.693C135.605 126.195 142.389 109.999 135.879 106.074Z" fill="#FCC486"/>
<path d="M144.58 101.594C163.056 101.594 161.85 153.974 158.576 156.62C154.502 159.914 128.06 156.869 126.593 155.07C125.125 153.271 124.046 101.594 144.58 101.594Z" fill="#FED385"/>
<path d="M149.772 104.681C149.772 106.226 141.208 106.557 141.208 104.681V94.166H149.772V104.681Z" fill="#DE8E68"/>
<path d="M151.324 92.485C153.417 87.1907 151.92 81.636 147.979 80.0783C144.039 78.5206 139.148 81.5498 137.055 86.844C134.962 92.1383 136.46 97.6929 140.4 99.2506C144.341 100.808 149.231 97.7792 151.324 92.485Z" fill="#DE8E68"/>
<path d="M151.652 94.5385C152.44 93.4383 152.455 92.1 151.686 91.5493C150.917 90.9985 149.655 91.444 148.867 92.5441C148.08 93.6443 148.064 94.9826 148.834 95.5333C149.603 96.084 150.865 95.6386 151.652 94.5385Z" fill="#DE8E68"/>
<path d="M158.237 88.4006C158.237 86.9728 156.904 85.4106 156.652 83.6041C156.522 82.6947 156.804 78.9098 155.743 77.6241C153.537 74.9705 152.234 75.5137 150.547 74.8833C147.607 73.8094 146.481 72.0278 144.054 72.0278C141.298 72.0278 140.185 73.4556 138.211 73.4556C135.954 73.4556 134.105 72.4165 130.938 72.4165C129.249 72.4165 127.041 74.6242 127.041 76.5726C127.041 81.1772 131.327 80.5169 131.327 81.6382C131.327 82.4156 131.078 83.0335 131.078 84.1049C131.078 85.5003 132.896 86.3125 133.935 86.3125C137.1 86.3125 137.518 85.9263 137.518 85.9263C138.147 84.6712 138.95 83.5111 139.903 82.4804C140.03 82.3458 142.086 83.7985 145.442 83.9106C148.195 84.0028 150.131 84.5335 150.131 85.8167C150.131 86.7212 149.8 89.4097 149.82 90.1671C149.84 90.9246 150.109 91.413 150.278 91.413C150.448 91.413 150.542 91.1638 151.599 91.1638C152.733 91.1638 152.82 92.5567 153.017 92.5567C154.145 92.5816 158.237 91.6572 158.237 88.4006Z" fill="#FD8369"/>
<path d="M152.989 106.866C159.218 103.101 169.13 116.902 168.936 119.207C168.741 121.512 159.602 128.227 155.777 127.482C153.265 126.994 146.481 110.798 152.989 106.866Z" fill="#FED892"/>
<path d="M94.7087 105.443C94.0011 105.901 93.4072 106.514 92.9722 107.236C92.5372 107.957 92.2725 108.769 92.1983 109.608C92.1241 110.448 92.2423 111.293 92.5439 112.08C92.8456 112.867 93.3227 113.575 93.939 114.149C94.5553 114.724 95.2946 115.151 96.1006 115.397C96.9066 115.643 97.7581 115.701 98.5903 115.569C99.4225 115.436 100.213 115.116 100.903 114.631C101.593 114.147 102.163 113.512 102.57 112.774L94.7087 105.443Z" fill="#DE8E68"/>
<path d="M109.706 0.118164H34.4829V44.7165H109.706V0.118164Z" fill="#F3F3F3"/>
<path d="M29.9306 -0.377441H3.47412V44.2209H29.9306V-0.377441Z" fill="#F3F3F3"/>
<path d="M42.5186 38.2382C44.7062 35.612 48.5883 31.1494 55.6496 29.632C66.1994 27.3621 69.2517 15.0408 74.3222 15.0408C80.6859 15.0408 83.367 18.6886 85.9932 18.6886C91.2655 18.6886 96.8045 13.8 99.6973 6.5791" stroke="#D0D0D0" stroke-width="3" stroke-linecap="round" stroke-linejoin="round"/>
<path d="M26.0634 6.67871H7.37842V8.38799H26.0634V6.67871Z" fill="#DEDEDE"/>
<path d="M26.0634 12.4346H7.37842V14.1439H26.0634V12.4346Z" fill="#DEDEDE"/>
<path d="M26.0634 18.1904H7.37842V19.8997H26.0634V18.1904Z" fill="#DEDEDE"/>
<path d="M26.0209 23.9463H7.33594V25.6556H26.0209V23.9463Z" fill="#DEDEDE"/>
<path d="M26.0209 29.7021H7.33594V31.4114H26.0209V29.7021Z" fill="#DEDEDE"/>
<path d="M26.0209 35.458H7.33594V37.1673H26.0209V35.458Z" fill="#DEDEDE"/>
<path d="M41.9405 67.8643H16.7148V69.5736H41.9405V67.8643Z" fill="white"/>
<path d="M41.9405 73.6201H16.7148V75.3294H41.9405V73.6201Z" fill="white"/>
<path d="M41.9405 79.376H16.7148V81.0853H41.9405V79.376Z" fill="white"/>
<path d="M41.8853 85.1313H16.6597V86.8406H41.8853V85.1313Z" fill="white"/>
<path d="M41.8853 90.8872H16.6597V92.5965H41.8853V90.8872Z" fill="white"/>
<path d="M41.8853 96.6401H16.6597V98.3494H41.8853V96.6401Z" fill="white"/>
<path d="M88.6366 58.1318H58.0315C54.777 58.1318 52.1387 60.7701 52.1387 64.0246V77.8035C52.1387 81.058 54.777 83.6963 58.0315 83.6963H88.6366C91.8911 83.6963 94.5294 81.058 94.5294 77.8035V64.0246C94.5294 60.7701 91.8911 58.1318 88.6366 58.1318Z" fill="white"/>
<path d="M72.3139 62.8285C73.101 62.8285 73.7391 62.1904 73.7391 61.4033C73.7391 60.6161 73.101 59.978 72.3139 59.978C71.5268 59.978 70.8887 60.6161 70.8887 61.4033C70.8887 62.1904 71.5268 62.8285 72.3139 62.8285Z" fill="#F3F3F3"/>
<path d="M72.3139 81.8524C73.101 81.8524 73.7391 81.2143 73.7391 80.4272C73.7391 79.6401 73.101 79.002 72.3139 79.002C71.5268 79.002 70.8887 79.6401 70.8887 80.4272C70.8887 81.2143 71.5268 81.8524 72.3139 81.8524Z" fill="#F3F3F3"/>
<path d="M72.314 61.8691V80.0234" stroke="#F3F3F3" stroke-width="3" stroke-linecap="round" stroke-linejoin="round"/>
<path d="M75.7744 64.2485V74.8356" stroke="#F3F3F3" stroke-width="3" stroke-linecap="round" stroke-linejoin="round"/>
<path d="M72.314 80.4272L75.7749 74.8359" stroke="#F3F3F3" stroke-width="3" stroke-linecap="round" stroke-linejoin="round"/>
<path d="M205.326 59.5445C203.661 57.9105 202.609 55.752 202.35 53.4329C202.091 51.1139 202.639 48.7765 203.903 46.8149C205.167 44.8534 207.069 43.3878 209.288 42.6656C211.507 41.9433 213.907 42.0086 216.083 42.8503C217.475 40.717 219.421 39.0022 221.713 37.8893C224.004 36.7765 226.555 36.3075 229.093 36.5324C231.63 36.7574 234.059 37.6679 236.119 39.1665C238.179 40.6651 239.793 42.6955 240.788 45.0405C242.749 44.2474 244.908 44.0875 246.965 44.5831C249.021 45.0787 250.871 46.2051 252.255 47.8044C253.639 49.4037 254.489 51.3959 254.684 53.502C254.88 55.6081 254.412 57.7226 253.346 59.5495L205.326 59.5445Z" fill="#DFDFDF"/>
<path d="M247.872 58.6978V92.856" stroke="#DFDFDF" stroke-width="4" stroke-miterlimit="10"/>
<path d="M182.266 77.6267C184.045 81.0528 188.011 82.3136 191.084 82.3136C198.504 82.3136 201.337 75.165 201.337 72.748" stroke="#DFDFDF" stroke-width="4" stroke-linecap="round" stroke-linejoin="round"/>
<path d="M181.798 41.5273C183.437 44.6444 184.25 47.9409 184.25 50.8213C184.25 57.6434 183.111 62.3203 182.256 66.4116" stroke="#DFDFDF" stroke-width="4" stroke-linecap="round" stroke-linejoin="round"/>
<path d="M144.351 37.0425C149.374 32.849 155.02 29.7319 161.74 29.7319C167.261 29.7319 171.744 31.3764 175.212 33.8856" stroke="#DFDFDF" stroke-width="4" stroke-linecap="round" stroke-linejoin="round"/>
<path d="M117.301 58.8244C122.566 58.8244 127.382 54.3394 132.532 48.8901" stroke="#DFDFDF" stroke-width="4" stroke-linecap="round" stroke-linejoin="round"/>
<path d="M141.732 38.5698H134.312V45.99H141.732V38.5698Z" fill="#DFDFDF"/>
<path d="M178.541 40.4035C180.341 40.4035 181.8 38.9443 181.8 37.1444C181.8 35.3444 180.341 33.8853 178.541 33.8853C176.741 33.8853 175.282 35.3444 175.282 37.1444C175.282 38.9443 176.741 40.4035 178.541 40.4035Z" fill="#DFDFDF"/>
<path d="M187.584 79.1799L180.323 74.4507L179.857 83.1043L187.584 79.1799Z" fill="#DFDFDF"/>
</g>
<defs>
<filter id="filter0_d" x="0" y="0" width="261" height="217" filterUnits="userSpaceOnUse" color-interpolation-filters="sRGB">
<feFlood flood-opacity="0" result="BackgroundImageFix"/>
<feColorMatrix in="SourceAlpha" type="matrix" values="0 0 0 0 0 0 0 0 0 0 0 0 0 0 0 0 0 0 127 0"/>
<feOffset dy="4"/>
<feGaussianBlur stdDeviation="2"/>
<feColorMatrix type="matrix" values="0 0 0 0 0 0 0 0 0 0 0 0 0 0 0 0 0 0 0.25 0"/>
<feBlend mode="normal" in2="BackgroundImageFix" result="effect1_dropShadow"/>
<feBlend mode="normal" in="SourceGraphic" in2="effect1_dropShadow" result="shape"/>
</filter>
<clipPath id="clip0">
<rect width="253" height="209" fill="white" transform="translate(4)"/>
</clipPath>
</defs>
</svg>
